<svg width="30" height="33" viewBox="0 0 30 33" fill="none" xmlns="http://www.w3.org/2000/svg">
<path d="M28.0577 23.9256C27.1586 22.707 25.5319 20.9485 25.5319 20.9485C25.5319 20.9485 23.9052 22.707 23.0062 23.9257C21.6992 25.6972 21.0638 27.0578 21.0638 28.0851C21.0638 30.5488 23.0682 32.5532 25.5319 32.5532C27.9956 32.5532 30 30.5488 30 28.0851C30 27.0578 29.3646 25.6972 28.0577 23.9256ZM20.0761 9.54415L19.753 9.54753C19.3368 9.55187 18.9454 9.39332 18.6499 9.10091C18.3543 8.80845 18.1915 8.41838 18.1915 8.00259V4.78723H15.3191V2.87234H20.1064V0.957447H15.3191V0H13.4043V0.957447H8.61702V2.87234H13.4043V4.78723H10.5319V7.76579C10.5319 8.76313 9.72057 9.57447 8.72323 9.57447H6.30128C6.35535 9.86065 6.3827 10.1512 6.38298 10.4425V15.4086C6.38267 15.6998 6.35532 15.9904 6.30128 16.2766H20.1064C21.1623 16.2766 22.0213 17.1356 22.0213 18.1915V19.1489H28.7234V18.1915C28.7234 13.4233 24.8442 9.54415 20.0761 9.54415ZM1.68517 7.65957H0V18.1915H1.68517C3.21964 18.1915 4.46809 16.943 4.46809 15.4086V10.4425C4.46809 8.90802 3.21964 7.65957 1.68517 7.65957Z" fill="url(#paint0_linear_8_491)"/>
<defs>
<linearGradient id="paint0_linear_8_491" x1="15" y1="0" x2="15" y2="32.5532" gradientUnits="userSpaceOnUse">
<stop stop-color="#8EDEF8"/>
<stop offset="1" stop-color="#5191A1"/>
</linearGradient>
</defs>
</svg>
